
<svg xmlns="http://www.w3.org/2000/svg" viewBox="0 0 55 55">
	<style type="text/css">
		.st0{fill:url(#defapp_1_);stroke:url(#defapp_2_);stroke-width:2;stroke-linejoin:round;stroke-miterlimit:10;}
		.st1{fill:#bbb;filter:url(#defapp-inset-shadow-2);}
	</style>
	<linearGradient id="defapp_1_" gradientUnits="userSpaceOnUse" x1="25" y1="24" x2="25" y2="55">
		<stop offset="0" style="stop-color:#fc22e5"/>
		<stop offset="1" style="stop-color:#1c7ffc"/>
	</linearGradient>
	<linearGradient id="defapp_2_" gradientUnits="userSpaceOnUse" x1="25" y1="14" x2="25" y2="55">
		<stop offset="0" style="stop-color:#910e8e"/>
		<stop offset="1" style="stop-color:#105bba"/>
	</linearGradient>
	<filter id="defapp-inset-shadow-2">
		<feComponentTransfer in="SourceAlpha">
			<feFuncA type="table" tableValues="1 0"/>
		</feComponentTransfer>
		<feGaussianBlur stdDeviation="1"/>
		<feOffset dx="0" dy="2" result="offsetblur"/>
		<feFlood flood-color="#fff" result="color"/>
		<feComposite in2="offsetblur" operator="in"/>
		<feComposite in2="SourceAlpha" operator="in"/>
		<feMerge>
			<feMergeNode in="SourceGraphic"/>
			<feMergeNode />
		</feMerge>
	</filter>
	<filter filterUnits="objectBoundingBox" id="defapp-filter-1">
		<feOffset dx="0" dy=".5" in="SourceAlpha" result="defappShadowOffsetOuter1"></feOffset>
		<feGaussianBlur stdDeviation="1" in="defappShadowOffsetOuter1" result="defappShadowBlurOuter1"></feGaussianBlur>
		<feColorMatrix values="0 0 0 0 0   0 0 0 0 0   0 0 0 0 0  0 0 0 0.5 0" type="matrix" in="defappShadowBlurOuter1" result="defappShadowMatrixOuter1"></feColorMatrix>
		<feMerge>
			<feMergeNode in="defappShadowMatrixOuter1"/>
			<feMergeNode in="SourceGraphic"/>
		</feMerge>
	</filter>
	<g filter="url(#defapp-filter-1)">
		<path class="st0" d="M39,5.2H16.4c-0.9,0-1.7,0.5-2.2,1.2L2.8,26c-0.4,0.6-0.4,1.4,0,2l11.4,19.7c0.4,0.7,1.2,1.2,2.2,1.2H39
		c0.9,0,1.7-0.5,2.2-1.2L52.6,28c0.4-0.6,0.4-1.4,0-2L41.2,6.3C40.8,5.6,39.9,5.2,39,5.2z"/>
	</g>
	<path class="st1" d="M47.5,29.9h-5.7c-0.4,0-0.8-0.2-1-0.4L39.1,28l-1.8,2.9c-0.6,1-2.2,0.8-2.5-0.3l-1-2.9l-1.5,6.7
		c-0.3,1.5-2.5,1.5-2.8,0l-2.9-11.9l-2.1,18.2c-0.2,1.6-2.5,1.7-2.8,0.1L19,29l-1.6,5.1c-0.4,1.2-2,1.3-2.6,0.2l-2.2-4.1
		c-1.2,0-3.6-0.1-5-0.1c-1.9,0-1.9-2.8-0.1-2.8c1.9,0,5.4,0.1,5.9,0.1c0.5,0,1,0.3,1.2,0.8l1,1.9l2.2-7c0.3-1.5,2.5-1.4,2.8,0
		l1.9,8.6l2.1-17.5c0.2-1.6,2.4-1.7,2.8-0.2l3.3,13.8l1.3-5.6c0.3-1.4,2.3-1.5,2.7-0.2l1.7,4.8l1.1-1.8c0.4-0.8,1.5-1,2.2-0.4
		l2.5,2.3h5.2C49.4,27.1,49.4,29.9,47.5,29.9L47.5,29.9z"/>
</svg>
