<svg xmlns="http://www.w3.org/2000/svg" width="0" height="0">

	<svg id="icon-undo" viewBox="0 0 13 13">
		<style type="text/css">
			.st0{fill:#333;}
		</style>
		<path class="st0" d="M6.5,1.9C5,1.9,3.6,2.5,2.6,3.5L1,1.9V6h4.1L3.6,4.5c0.7-0.7,1.8-1.2,2.9-1.2c2.3,0,4.1,1.8,4.1,4.1c0,1.2-0.5,2.3-1.4,3.1 l0.9,1c1.1-1,1.9-2.5,1.9-4.1C12,4.3,9.5,1.9,6.5,1.9z"/>
	</svg>

	<svg id="icon-redo" viewBox="0 0 13 13">
		<style type="text/css">
			.st0{fill:#333;}
		</style>
		<path class="st0" d="M1,7.4c0,1.6,0.7,3.1,1.8,4.1l0.9-1C2.9,9.7,2.4,8.6,2.4,7.4c0-2.3,1.8-4.1,4.1-4.1c1.1,0,2.2,0.5,2.9,1.2L7.9,6H12V1.9 l-1.6,1.6c-1-1-2.4-1.6-3.9-1.6C3.5,1.9,1,4.4,1,7.4z"/>
	</svg>

	<svg id="icon-cogs" viewBox="0 0 13 13">
		<style type="text/css">
			.st0{fill:#333;}
		</style>
		<path class="st0" d="M10.6,7c0-0.2,0-0.3,0-0.5c0-0.2,0-0.4,0-0.5l1.2-0.9c0.1-0.1,0.1-0.2,0.1-0.3l-1.1-1.9c-0.1-0.1-0.2-0.2-0.3-0.1L9,3.2 C8.7,3,8.4,2.8,8.1,2.7L7.9,1.2C7.8,1.1,7.7,1,7.6,1H5.4C5.3,1,5.2,1.1,5.1,1.2L4.9,2.7C4.6,2.8,4.3,3,4,3.2L2.6,2.7 c-0.1,0-0.3,0-0.3,0.1L1.2,4.7C1.1,4.8,1.2,5,1.3,5.1L2.4,6c0,0.2-0.1,0.4-0.1,0.5s0,0.4,0,0.5L1.3,7.9C1.2,8,1.1,8.2,1.2,8.3 l1.1,1.9c0.1,0.1,0.2,0.2,0.3,0.1L4,9.8c0.3,0.2,0.6,0.4,0.9,0.5l0.2,1.5c0,0.1,0.1,0.2,0.3,0.2h2.2c0.1,0,0.3-0.1,0.3-0.2l0.2-1.5 C8.4,10.2,8.7,10,9,9.8l1.4,0.5c0.1,0,0.3,0,0.3-0.1l1.1-1.9c0.1-0.1,0-0.3-0.1-0.3L10.6,7z M6.5,8.9c-1.3,0-2.4-1.1-2.4-2.4 s1.1-2.4,2.4-2.4s2.4,1.1,2.4,2.4S7.8,8.9,6.5,8.9z"/>
	</svg>
	
	<svg id="icon-rewind" viewBox="0 0 13 13">
		<path fill="#333" d="M6.4,10.4V2.6c0-0.3-0.2-0.5-0.4-0.3L1,6.2C0.8,6.3,0.8,6.7,1,6.8l5,3.9C6.2,10.9,6.4,10.7,6.4,10.4z"/>
		<path fill="#333" d="M12,10.4V2.6c0-0.3-0.2-0.5-0.4-0.3l-5,3.9c-0.2,0.1-0.2,0.5,0,0.6l5,3.9C11.7,10.9,12,10.7,12,10.4z"/>
	</svg>

	<svg id="icon-forward" viewBox="0 0 13 13">
		<path fill="#333" d="M6.6,2.6v7.8c0,0.3,0.2,0.5,0.4,0.3l5-3.9c0.2-0.1,0.2-0.5,0-0.7L7,2.3C6.8,2.1,6.6,2.3,6.6,2.6z"/>
		<path fill="#333" d="M1,2.6v7.8c0,0.3,0.2,0.5,0.4,0.3l5-3.9c0.2-0.1,0.2-0.5,0-0.7l-5-3.9C1.3,2.1,1,2.3,1,2.6z"/>
	</svg>

	<svg id="icon-stop" viewBox="0 0 13 13">
		<path fill="#333" d="M10.5,11h-8C2.2,11,2,10.8,2,10.5v-8C2,2.2,2.2,2,2.5,2h8C10.8,2,11,2.2,11,2.5v8C11,10.8,10.8,11,10.5,11z"/>
	</svg>

	<svg id="icon-play" viewBox="0 0 13 13">
		<path fill="#333" d="M2,1.7v9.6c0,0.4,0.4,0.6,0.7,0.4l8.4-4.8c0.3-0.2,0.3-0.6,0-0.8L2.7,1.3C2.4,1.1,2,1.4,2,1.7z"/>
	</svg>

	<svg id="icon-record" viewBox="0 0 13 13">
		<circle fill="#f00" cx="6.5" cy="6.5" r="4.5"/>
	</svg>

	<svg id="icon-loop" viewBox="0 0 13 13">
		<path fill="#333" d="M9.6,3.2L8,1.7c0,0-0.1,0-0.1,0c0,0,0,0,0,0.1V3H4.5C2.6,3,1,4.6,1,6.5c0,1.6,1.1,3,2.6,3.4l1.5,1.4c0,0,0.1,0,0.1,0
			c0,0,0,0,0-0.1V10h3.2c1.9,0,3.5-1.6,3.5-3.5C12,4.9,11,3.6,9.6,3.2z M10.1,8.1c-0.4,0.4-1,0.7-1.6,0.7H5.3V7.5
			c0-0.1-0.1-0.1-0.1-0.1L3.9,8.7c-0.4-0.1-0.7-0.3-1-0.6c-0.4-0.4-0.7-1-0.7-1.6s0.2-1.2,0.7-1.6c0.4-0.4,1-0.7,1.6-0.7h3.4v1.3
			C7.9,5.6,8,5.6,8,5.5l1.2-1.2c0.3,0.1,0.6,0.3,0.8,0.5c0.4,0.4,0.7,1,0.7,1.6S10.5,7.7,10.1,8.1z"/>
	</svg>

	<svg id="icon-copy" viewBox="0 0 13 13">
		<path fill="#333" d="M9,4V0H4L1,3v7h3v3h8V4H9z M4,1.4V3H2.4L4,1.4z M2,9V4h3V1h3v3L7,4L4,7v2H2z M7,5.4V7H5.4L7,5.4z M11,12H5V8h3V5h3V12z"/>
	</svg>

	<svg id="icon-paste" viewBox="0 0 13 13">
		<path fill="#333" d="M11.5,2L8,2c0-0.8-0.7-1.5-1.5-1.5S5,1.1,5,2L1.4,2C1.1,2,1,2.2,1,2.4v9.3C1,11.8,1.1,12,1.4,12h10.2c0.2,0,0.4-0.2,0.4-0.4
			V2.4C11.9,2.2,11.8,2,11.5,2z M6.5,1.2c0.4,0,0.7,0.3,0.7,0.7S6.9,2.7,6.5,2.7S5.8,2.4,5.8,2S6.1,1.2,6.5,1.2z M11,11H2l0-8h1.5
			l0,0.6C3.5,3.8,3.7,4,3.9,4h5.2c0.2,0,0.4-0.2,0.4-0.4l0-0.6H11L11,11z"/>
		<path fill="#333" d="M5.8,9.8L3.4,7L4,6.3l1.7,1.3L9,4.8l0.7,0.7L5.8,9.8z"/>
	</svg>

	<svg id="icon-cut" viewBox="0 0 13 13">
		<path fill="#333" d="M11.4,8.7C10.7,7.5,9.4,7,8.5,7.5c-0.1,0-0.1,0.1-0.2,0.2L7.4,6.3L9.5,3c0.2-0.3,0.2-0.7,0.2-1.1C9.6,1.6,9.4,1.3,9.1,1.1
			L9,1L6.5,4.8L4,1L3.9,1.1C3.6,1.3,3.4,1.6,3.3,1.9C3.3,2.3,3.3,2.7,3.5,3l2.1,3.3L4.7,7.7C4.6,7.6,4.5,7.6,4.5,7.5
			C3.6,7,2.3,7.5,1.6,8.7c-0.8,1.2-0.7,2.6,0.2,3.1c0.8,0.5,2.1,0,2.9-1.2l1.9-2.9l1.9,2.9c0.8,1.2,2.1,1.7,2.9,1.2
			C12.1,11.3,12.2,9.9,11.4,8.7L11.4,8.7z M3.7,10.1c-0.3,0.5-0.8,0.8-1.1,0.9c0,0,0,0,0,0c-0.1,0-0.2,0-0.3,0
			c-0.1-0.1-0.2-0.2-0.2-0.5c0-0.4,0.1-0.8,0.4-1.2c0.3-0.5,0.8-0.8,1.1-0.9c0.1,0,0.2,0,0.3,0C4,8.5,4.1,8.7,4.1,8.9
			C4.1,9.3,4,9.7,3.7,10.1z M6.5,6.8c-0.2,0-0.4-0.2-0.4-0.4c0-0.2,0.2-0.4,0.4-0.4c0.2,0,0.4,0.2,0.4,0.4C6.9,6.6,6.7,6.8,6.5,6.8z
			 M10.9,10.4c0,0.2-0.1,0.4-0.2,0.5c-0.1,0.1-0.2,0-0.3,0c0,0,0,0,0,0c-0.3-0.1-0.7-0.3-1.1-0.9C9,9.7,8.9,9.3,8.9,8.9
			c0-0.2,0.1-0.4,0.2-0.5c0.1-0.1,0.2,0,0.3,0c0.3,0.1,0.7,0.3,1.1,0.9C10.8,9.7,10.9,10.1,10.9,10.4L10.9,10.4z"/>
	</svg>

	<svg id="icon-silence" viewBox="0 0 13 13">
		<path fill="#333" d="M12,7.7v1h-1L9.8,7.5L8.6,8.7h-1v-1l1.2-1.2L7.6,5.3v-1h1l1.2,1.2L11,4.3h1v1l-1.2,1.2L12,7.7z"/>
		<path fill="#333" d="M5.8,11.6c-0.1,0-0.2,0-0.3-0.1L2.7,8.7H1.4C1.2,8.7,1,8.5,1,8.3V4.7c0-0.2,0.2-0.4,0.4-0.4h1.3l2.8-2.8
			c0.1-0.1,0.3-0.1,0.4-0.1C6,1.4,6.1,1.6,6.1,1.7v9.5c0,0.1-0.1,0.3-0.2,0.3C5.9,11.6,5.8,11.6,5.8,11.6z"/>
	</svg>

	<svg id="icon-switch" viewBox="0 0 13 13">
		<path fill="#333" d="M7.9,2.6v1.5c0.4,0.2,0.7,0.4,1,0.7c0.6,0.6,1,1.5,1,2.4S9.6,9,8.9,9.6c-0.6,0.6-1.5,1-2.4,1s-1.8-0.4-2.4-1
			c-0.6-0.6-1-1.5-1-2.4s0.4-1.8,1-2.4c0.3-0.3,0.7-0.5,1-0.7V2.6C3.2,3.2,1.7,5,1.7,7.2c0,2.6,2.1,4.8,4.8,4.8s4.8-2.1,4.8-4.8
			C11.3,5,9.8,3.2,7.9,2.6z M5.8,1h1.4v5.5H5.8V1z"/>
	</svg>

	<svg id="icon-reset" viewBox="0 0 13 13">
		<path fill="#333" d="M6.9,1.5c-2.4,0-4.4,1.7-4.9,4h-1l1.4,1.7l1.4-1.7H3.2c0.4-1.6,1.9-2.9,3.7-2.9c2.1,0,3.9,1.7,3.9,3.9
	c0,2.1-1.7,3.9-3.9,3.9c-1.4,0-2.6-0.7-3.3-1.8l-1,0.6c0.9,1.4,2.5,2.4,4.3,2.4c2.8,0,5-2.2,5-5C11.9,3.7,9.7,1.5,6.9,1.5z M6.4,4.2
	v2.3v0.3l0.2,0.2L8,8.1l0.4,0.4l0.7-0.9L8.7,7.2l-1.2-1v-2H6.4z"/>
	</svg>
	
	<svg id="icon-sidebar" viewBox="0 0 13 13">
		<style type="text/css">
			.st0{fill:#333;}
		</style>
		<path class="st0" d="M12,1H5H4H1H0v1v9v1h1h3h1h7h1v-1V2V1H12z M1,11V2h3v9H1z M12,11H5V2h7V11z"/>
		<rect x="2" y="3" class="st0" width="1" height="1"/>
		<rect x="2" y="5" class="st0" width="1" height="1"/>
	</svg>

	<svg id="icon-folder-open" viewBox="0 0 17 17">
		<style type="text/css">
			.st0{fill:#333;}
		</style>
		<path class="st0" d="M16,9.5c0,0.2-0.1,0.4-0.2,0.5L13.1,13c-0.5,0.5-1.4,1-2.1,1H2.3c-0.3,0-0.7-0.1-0.7-0.4c0-0.2,0.1-0.4,0.2-0.5L4.5,10
			C5,9.4,5.9,9,6.6,9h8.7C15.6,9,16,9.1,16,9.5z M13.2,6.4V8H6.6c-1,0-2.2,0.6-2.9,1.3L1,12.4c0-0.1,0-0.1,0-0.2l0-7.7
			C1,3.5,1.3,3,2.3,3h3.5c1,0,1.4,0.3,1.4,1.3V5h4.7C12.8,5,13.2,5.4,13.2,6.4z"/>
	</svg>

	<svg id="icon-clipboard" viewBox="0 0 17 17">
		<style type="text/css">
			.st0{fill:#333;}
		</style>
		<path class="st0" d="M14.6,2.9h-4.2c0-1-0.8-1.9-1.9-1.9S6.6,1.8,6.6,2.9H2.4c-0.3,0-0.5,0.2-0.5,0.5v12.2c0,0.3,0.2,0.5,0.5,0.5h12.2
			c0.3,0,0.5-0.2,0.5-0.5V3.3C15.1,3.1,14.9,2.9,14.6,2.9z M8.5,1.9c0.5,0,0.9,0.4,0.9,0.9S9,3.8,8.5,3.8S7.6,3.4,7.6,2.9
			S8,1.9,8.5,1.9z M14,15H3V4h1.7v1.5C4.7,5.8,5,6,5.2,6h6.6c0.3,0,0.5-0.2,0.5-0.5V4H14V15z"/>
		<path class="st0" d="M7.6,13.6l-3-3.5l0.9-0.9l2.2,1.7l4-3.6l0.9,0.9L7.6,13.6z"/>
	</svg>

</svg>