<svg xmlns="http://www.w3.org/2000/svg" width="0" height="0">

	<svg id="icon-rewind" viewBox="0 0 13 13">
		<path fill="#333" d="M6.4,10.4V2.6c0-0.3-0.2-0.5-0.4-0.3L1,6.2C0.8,6.3,0.8,6.7,1,6.8l5,3.9C6.2,10.9,6.4,10.7,6.4,10.4z"/>
		<path fill="#333" d="M12,10.4V2.6c0-0.3-0.2-0.5-0.4-0.3l-5,3.9c-0.2,0.1-0.2,0.5,0,0.6l5,3.9C11.7,10.9,12,10.7,12,10.4z"/>
	</svg>

	<svg id="icon-forward" viewBox="0 0 13 13">
		<path fill="#333" d="M6.6,2.6v7.8c0,0.3,0.2,0.5,0.4,0.3l5-3.9c0.2-0.1,0.2-0.5,0-0.7L7,2.3C6.8,2.1,6.6,2.3,6.6,2.6z"/>
		<path fill="#333" d="M1,2.6v7.8c0,0.3,0.2,0.5,0.4,0.3l5-3.9c0.2-0.1,0.2-0.5,0-0.7l-5-3.9C1.3,2.1,1,2.3,1,2.6z"/>
	</svg>

	<svg id="icon-stop" viewBox="0 0 13 13">
		<path fill="#333" d="M10.5,11h-8C2.2,11,2,10.8,2,10.5v-8C2,2.2,2.2,2,2.5,2h8C10.8,2,11,2.2,11,2.5v8C11,10.8,10.8,11,10.5,11z"/>
	</svg>

	<svg id="icon-play" viewBox="0 0 13 13">
		<path fill="#333" d="M2,1.7v9.6c0,0.4,0.4,0.6,0.7,0.4l8.4-4.8c0.3-0.2,0.3-0.6,0-0.8L2.7,1.3C2.4,1.1,2,1.4,2,1.7z"/>
	</svg>

	<svg id="icon-record" viewBox="0 0 13 13">
		<circle fill="#f00" cx="6.5" cy="6.5" r="4.5"/>
	</svg>

	<svg id="icon-loop" viewBox="0 0 13 13">
		<path fill="#333" d="M9.6,3.2L8,1.7c0,0-0.1,0-0.1,0c0,0,0,0,0,0.1V3H4.5C2.6,3,1,4.6,1,6.5c0,1.6,1.1,3,2.6,3.4l1.5,1.4c0,0,0.1,0,0.1,0
			c0,0,0,0,0-0.1V10h3.2c1.9,0,3.5-1.6,3.5-3.5C12,4.9,11,3.6,9.6,3.2z M10.1,8.1c-0.4,0.4-1,0.7-1.6,0.7H5.3V7.5
			c0-0.1-0.1-0.1-0.1-0.1L3.9,8.7c-0.4-0.1-0.7-0.3-1-0.6c-0.4-0.4-0.7-1-0.7-1.6s0.2-1.2,0.7-1.6c0.4-0.4,1-0.7,1.6-0.7h3.4v1.3
			C7.9,5.6,8,5.6,8,5.5l1.2-1.2c0.3,0.1,0.6,0.3,0.8,0.5c0.4,0.4,0.7,1,0.7,1.6S10.5,7.7,10.1,8.1z"/>
	</svg>

</svg>